<svg xmlns="http://www.w3.org/2000/svg" width="454" height="454" viewbox="0 0 454 454" preserveAspectRatio="none"><rect x="0" y="0" width="100%" height="100%" fill="rgb(135, 115, 71)" /><rect x="0" y="9" width="100%" height="19" opacity="0.14133333333333" fill="#ddd" /><rect x="0" y="37" width="100%" height="20" opacity="0.15" fill="#222" /><rect x="0" y="70" width="100%" height="5" opacity="0.02" fill="#ddd" /><rect x="0" y="80" width="100%" height="18" opacity="0.13266666666667" fill="#222" /><rect x="0" y="104" width="100%" height="5" opacity="0.02" fill="#ddd" /><rect x="0" y="119" width="100%" height="6" opacity="0.028666666666667" fill="#222" /><rect x="0" y="136" width="100%" height="12" opacity="0.080666666666667" fill="#222" /><rect x="0" y="167" width="100%" height="8" opacity="0.046" fill="#222" /><rect x="0" y="182" width="100%" height="16" opacity="0.11533333333333" fill="#222" /><rect x="0" y="209" width="100%" height="20" opacity="0.15" fill="#222" /><rect x="0" y="241" width="100%" height="20" opacity="0.15" fill="#222" /><rect x="0" y="267" width="100%" height="11" opacity="0.072" fill="#ddd" /><rect x="0" y="289" width="100%" height="16" opacity="0.11533333333333" fill="#222" /><rect x="0" y="324" width="100%" height="20" opacity="0.15" fill="#222" /><rect x="0" y="353" width="100%" height="7" opacity="0.037333333333333" fill="#ddd" /><rect x="0" y="375" width="100%" height="9" opacity="0.054666666666667" fill="#ddd" /><rect x="0" y="398" width="100%" height="8" opacity="0.046" fill="#222" /><rect x="0" y="415" width="100%" height="9" opacity="0.054666666666667" fill="#ddd" /><rect x="0" y="436" width="100%" height="18" opacity="0.13266666666667" fill="#222" /><rect x="9" y="0" width="19" height="100%" opacity="0.14133333333333" fill="#ddd" /><rect x="37" y="0" width="20" height="100%" opacity="0.15" fill="#222" /><rect x="70" y="0" width="5" height="100%" opacity="0.02" fill="#ddd" /><rect x="80" y="0" width="18" height="100%" opacity="0.13266666666667" fill="#222" /><rect x="104" y="0" width="5" height="100%" opacity="0.02" fill="#ddd" /><rect x="119" y="0" width="6" height="100%" opacity="0.028666666666667" fill="#222" /><rect x="136" y="0" width="12" height="100%" opacity="0.080666666666667" fill="#222" /><rect x="167" y="0" width="8" height="100%" opacity="0.046" fill="#222" /><rect x="182" y="0" width="16" height="100%" opacity="0.11533333333333" fill="#222" /><rect x="209" y="0" width="20" height="100%" opacity="0.15" fill="#222" /><rect x="241" y="0" width="20" height="100%" opacity="0.15" fill="#222" /><rect x="267" y="0" width="11" height="100%" opacity="0.072" fill="#ddd" /><rect x="289" y="0" width="16" height="100%" opacity="0.11533333333333" fill="#222" /><rect x="324" y="0" width="20" height="100%" opacity="0.15" fill="#222" /><rect x="353" y="0" width="7" height="100%" opacity="0.037333333333333" fill="#ddd" /><rect x="375" y="0" width="9" height="100%" opacity="0.054666666666667" fill="#ddd" /><rect x="398" y="0" width="8" height="100%" opacity="0.046" fill="#222" /><rect x="415" y="0" width="9" height="100%" opacity="0.054666666666667" fill="#ddd" /><rect x="436" y="0" width="18" height="100%" opacity="0.13266666666667" fill="#222" /></svg>